<svg id="bongo_icon" xmlns="http://www.w3.org/2000/svg" xmlns:xlink="http://www.w3.org/1999/xlink" viewBox="0 0 414.8 414.8"><defs><style>.cls-1{fill:none;}.cls-2{fill:url(#radial-gradient);}.cls-3{fill:url(#radial-gradient-2);}.cls-4{clip-path:url(#clip-path);}</style><radialGradient id="radial-gradient" cx="207.4" cy="207.4" r="207.4" gradientUnits="userSpaceOnUse"><stop offset="0" stop-color="#fff"/><stop offset="0.97" stop-color="#8207aa"/><stop offset="1" stop-color="#231f20"/></radialGradient><radialGradient id="radial-gradient-2" cx="207.4" cy="207.4" r="199.75" gradientUnits="userSpaceOnUse"><stop offset="0.71" stop-color="#fff"/><stop offset="0.84" stop-color="#eb008b"/><stop offset="1"/></radialGradient><clipPath id="clip-path"><circle class="cls-1" cx="207.4" cy="207.4" r="186.3"/></clipPath></defs><g id="background"><circle id="outer_circle" class="cls-2" cx="207.4" cy="207.4" r="207.4"/><circle id="middle_circle" class="cls-3" cx="207.4" cy="207.4" r="199.75"/></g><g id="bongo"><ellipse id="top" cx="139.53" cy="163.82" rx="54.89" ry="18.16"/><path id="mid" d="M332.82,187.77c-24.62,28.23-99.47,17.77-115.1,0V174.14c25.6,22.31,91.65,20.93,115.1,2Z"/><path id="mid-2" data-name="mid" d="M197.08,187.77c-24.62,28.23-99.47,17.77-115.1,0V174.14c25.6,22.31,91.65,20.93,115.1,2Z"/><ellipse id="top-2" data-name="top" cx="275.17" cy="163.82" rx="54.89" ry="18.16"/><path id="base" d="M218.9,201.83l3.54,18.46H192.65l3.15-18.46c-36.13,16-73.79,14.3-112.54,0L96,268.17c25.77,15.7,64,18.07,88.85-2.07l2.7-15.8h40.67l3.43,17.87c25.76,15.7,64,18.07,88.84-2.07l11-64.27C295.31,217.84,257.65,216.13,218.9,201.83Zm-30.08,41,2.55-15h32.52l2.88,15Z"/></g></svg>