<svg id="drum_icon" xmlns="http://www.w3.org/2000/svg" xmlns:xlink="http://www.w3.org/1999/xlink" viewBox="0 0 414.8 414.8"><defs><style>.cls-1{fill:none;}.cls-2{fill:url(#radial-gradient);}.cls-3{fill:url(#radial-gradient-2);}.cls-4{clip-path:url(#clip-path);}</style><radialGradient id="radial-gradient" cx="207.4" cy="207.4" r="207.4" gradientUnits="userSpaceOnUse"><stop offset="0" stop-color="#fff"/><stop offset="0.97" stop-color="#8207aa"/><stop offset="1" stop-color="#231f20"/></radialGradient><radialGradient id="radial-gradient-2" cx="207.4" cy="207.4" r="199.75" gradientUnits="userSpaceOnUse"><stop offset="0.71" stop-color="#fff"/><stop offset="0.84" stop-color="#eb008b"/><stop offset="1"/></radialGradient><clipPath id="clip-path"><circle id="SVGID" class="cls-1" cx="207.4" cy="207.4" r="186.3"/></clipPath></defs><g id="background"><circle id="outer_circle" class="cls-2" cx="207.4" cy="207.4" r="207.4"/><circle id="middle_circle" class="cls-3" cx="207.4" cy="207.4" r="199.75"/></g><path id="drum" d="M315.08,161.44a4.51,4.51,0,0,0-5.67-2.93l-21.12,7.35c-8.84-8.67-24.05-15.73-42.91-19.92l41.05-21.72a4.52,4.52,0,1,0-4.29-8l-47.93,27.61a193.28,193.28,0,0,0-28.82-2.13c-50.46,0-91.37,18.62-91.37,41.59a19,19,0,0,0,.18,2.5H114v72.28c0,2.77,14.67,24.71,29.33,28.21V213.87a129.86,129.86,0,0,0,21.38,6.72v73.86c28.14,5.51,55.18,5.8,81,0V220.67a130.7,130.7,0,0,0,21-6.49v72.15c14.67-3.5,29.33-28.21,29.33-28.21V188.51a19.74,19.74,0,0,0,.73-5.17,21,21,0,0,0-3-10.56l18.36-5.66A4.52,4.52,0,0,0,315.08,161.44Zm-34.37,18.22c0,17.27-33.72,31.26-75.32,31.26s-75.33-14-75.33-31.26,33.73-31.25,75.33-31.25a176.8,176.8,0,0,1,19.18,1l-28.31,16.3c-2.19,1.19-13.66,6.61-12.47,8.81s7.14.24,9.34-1l42.59-22.54c19.37,3.54,34.45,10.36,41.17,18.77L215.81,191.1c-2.38.76-14.65,4-13.9,6.33s7,1.57,9.36.81l69.14-21.33A13.46,13.46,0,0,1,280.71,179.66Z"/></svg>